<svg xmlns="http://www.w3.org/2000/svg" width="33.189" height="22.129" viewBox="0 0 33.189 22.129">
  <g id="Group_172" data-name="Group 172" transform="translate(-171.997 -402.103)">
    <circle id="Ellipse_18" data-name="Ellipse 18" cx="3.54" cy="3.54" r="3.54" transform="translate(185.054 403.473)" fill="#f2af4e"/>
    <path id="Path_122" data-name="Path 122" d="M201.526,419.449a34.51,34.51,0,0,0-.99-5.525c-.373-1.1-1.482-1.959-2.325-2.868a1,1,0,0,0-.92-.036,5,5,0,0,1-5.081,0,1.41,1.41,0,0,0-1.216.107,6.889,6.889,0,0,0-3.041,5.976c0,1.9.037,3.809-.033,5.71-.015.4-.43.777-.661,1.165-.205-.373-.579-.742-.587-1.119-.052-2.22-.048-4.442-.005-6.662a7.778,7.778,0,0,1,3.235-6.044,1.183,1.183,0,0,0,.5-1.49,4.7,4.7,0,0,1,3.853-6.358c3.107-.595,5.99,2.951,4.948,6.175a1.6,1.6,0,0,0,.577,2.071,7.564,7.564,0,0,1,2.868,6.1c.019,2.062.04,4.126-.027,6.187-.013.388-.436.762-.669,1.143-.234-.387-.636-.758-.67-1.162-.094-1.1-.032-2.219-.032-3.329Zm-10.069-12.427a3.315,3.315,0,0,0,6.63.091,3.316,3.316,0,1,0-6.63-.091Z" transform="translate(-6.18)" fill="#544e43" stroke="#544e43" stroke-miterlimit="10" stroke-width="0.25"/>
    <path id="Path_123" data-name="Path 123" d="M222.117,419.027a29.739,29.739,0,0,1-.033,3c-.036.328-.44.616-.676.922-.229-.3-.642-.589-.656-.9-.069-1.5-.039-3.015-.03-4.523a4.9,4.9,0,0,0-1.546-3.6,1.33,1.33,0,0,0-1.759-.357,3.57,3.57,0,0,1-4.58-1.5,3.7,3.7,0,0,1,1.239-4.986,3.743,3.743,0,0,1,4.885.959,3.337,3.337,0,0,1,.549,3.149,1.248,1.248,0,0,0,.487,1.587A7.01,7.01,0,0,1,222.117,419.027Zm-3.8-8.8a2.394,2.394,0,0,0-2.257-2.3,2.562,2.562,0,0,0-2.4,2.318,2.678,2.678,0,0,0,2.308,2.329A2.491,2.491,0,0,0,218.313,410.23Z" transform="translate(-17.111 -1.842)" fill="#544e43" stroke="#544e43" stroke-miterlimit="10" stroke-width="0.25"/>
    <path id="Path_124" data-name="Path 124" d="M172.141,419.315c-.089-2.067-.116-4.12,1.381-5.812a1.843,1.843,0,0,1,.317-.348,2.145,2.145,0,0,0,.954-2.551,3.456,3.456,0,0,1,3.217-4.01,3.747,3.747,0,0,1,4.081,3.425,3.945,3.945,0,0,1-3.489,3.93,3.367,3.367,0,0,1-1.7-.394,1.362,1.362,0,0,0-1.868.372,4.62,4.62,0,0,0-1.5,3.36c.011,1.544.041,3.09-.037,4.631-.018.358-.44.7-.675,1.043-.226-.344-.607-.671-.648-1.035A23.512,23.512,0,0,1,172.141,419.315Zm6.234-11.385a2.427,2.427,0,0,0-2.314,2.255,2.514,2.514,0,0,0,2.308,2.39,2.556,2.556,0,0,0,2.335-2.4A2.493,2.493,0,0,0,178.374,407.93Z" transform="translate(0 -1.844)" fill="#544e43" stroke="#544e43" stroke-miterlimit="10" stroke-width="0.25"/>
    <circle id="Ellipse_19" data-name="Ellipse 19" cx="2.24" cy="2.24" r="2.24" transform="translate(176.142 406.139)" fill="#f2af4e"/>
    <circle id="Ellipse_20" data-name="Ellipse 20" cx="2.24" cy="2.24" r="2.24" transform="translate(196.635 406.139)" fill="#f2af4e"/>
    <path id="Path_125" data-name="Path 125" d="M184.4,412.156c-.92-.344-2.444.679-2.664-1.258-.251-2.218,1.387-1.709,2.578-1.873A3.051,3.051,0,0,1,184.4,412.156Z" transform="translate(-4.085 -2.885)" fill="#f2c685"/>
    <path id="Path_126" data-name="Path 126" d="M219.922,412.156c-.92-.344-2.445.679-2.664-1.258-.251-2.218,1.386-1.709,2.578-1.873A3.052,3.052,0,0,1,219.922,412.156Z" transform="translate(-19.197 -2.885)" fill="#f2c685"/>
    <path id="Path_127" data-name="Path 127" d="M203.275,408.228c-.92-.344-2.445.679-2.664-1.258-.251-2.219,1.387-1.709,2.578-1.873A3.052,3.052,0,0,1,203.275,408.228Z" transform="translate(-12.115 -1.215)" fill="#f2c685"/>
  </g>
</svg>
