<svg xmlns="http://www.w3.org/2000/svg" width="30.269" height="27.122" viewBox="0 0 30.269 27.122">
  <g id="Group_157" data-name="Group 157" transform="translate(-94.697 -273.858)">
    <path id="Path_95" data-name="Path 95" d="M99.508,289.7c-2.508,2.145-2.965-.828-4.134-1.755-1.574-1.248-.015-2.012.759-2.709,3.847-3.46,7.785-6.819,11.594-10.32,1.539-1.414,2.68-1.416,4.228.022,3.722,3.455,7.615,6.724,11.367,10.147.668.609,2.41,1.234,1.259,2.41-1.034,1.055-1.312,3.6-3.807,2.628-2.466,1.912-2.241-.845-3.082-1.765-2.112-1.889-4.025-3.975-6.226-5.781-1.388-1.139-2.286-1-3.492.084a55.406,55.406,0,0,0-6.192,6.212c-.836,1.935.449,4.31-1.363,6.3C99.123,293.391,100.441,291.327,99.508,289.7Z" fill="#595248"/>
    <path id="Path_96" data-name="Path 96" d="M121.892,307.14c.084.05.216.083.242.154a7.961,7.961,0,0,0,2.187,2.071c-1.555,2.641-.5,5.48-.557,8.224-.017.839,1.036.671,1.683.748.618.073,1.226.2,1.145.986s-.782.756-1.345.757q-11.438.026-22.875.016c-.659,0-1.485.062-1.541-.915-.047-.829.667-.823,1.231-.894,1.312-.163,1.1-1.173,1.1-2.012-.01-2.445-.067-4.889-.105-7.334,1.468,1.306-.168,3.176.931,4.66.959-2.1-.531-4.505.883-6.46,1.191,1.445.628,3.175.773,4.789s-.321,3.29.418,4.8c1.284.114,1.155-1.755,2.42-1.4.229,3.538,2.591,3.61,5.292,3.388a11.722,11.722,0,0,1,5.311.475c-.51-.229-1.039-.362-.61-1.09,2.213-.729,2.662-2.353,2.651-4.509S120.46,309.143,121.892,307.14Z" transform="translate(-3.546 -19.242)" fill="#544e43" stroke="#544e43" stroke-miterlimit="10" stroke-width="0.25"/>
    <path id="Path_97" data-name="Path 97" d="M113.633,305.2a8.193,8.193,0,0,0-.4,1.659c-.036,1.16-.664,1.478-1.693,1.475-1.166,0-1.483-.656-1.466-1.678.055-3.2.092-6.407.136-9.611,2.449-2.232,4.942-4.418,7.324-6.719.915-.884,1.468-.856,2.368.007,2.39,2.293,4.881,4.481,7.333,6.711.048,2.633-.078,5.284.19,7.894.307,2.985-.876,3.878-3.624,3.209-1.31-1.256-.723-2.894-.887-4.379.035-4.81.035-4.81-4.694-4.78-3.567.022-3.569.022-3.719,3.477a6.436,6.436,0,0,1-.265,2.022A1.509,1.509,0,0,1,113.633,305.2Z" transform="translate(-8.892 -9.142)" fill="#fefefd"/>
    <path id="Path_98" data-name="Path 98" d="M100.194,290.974c-.461-.591-.9-1.113-1.3-1.67-.513-.729.173-1.062.567-1.411,3.891-3.443,7.81-6.854,11.695-10.3a1.272,1.272,0,0,1,2,.008q5.71,5.084,11.49,10.09c.961.835.931,1.532.062,2.44-1.022,1.067-1.526.119-2.134-.421-2.857-2.541-5.785-5.011-8.511-7.685-1.412-1.385-2.286-1.53-3.77-.051-2.7,2.694-5.656,5.14-8.51,7.685C101.361,290.038,100.9,290.391,100.194,290.974Z" transform="translate(-2.323 -1.878)" fill="#f3b14e"/>
    <path id="Path_99" data-name="Path 99" d="M118.456,324.151a1.314,1.314,0,0,1,.116-.529.552.552,0,0,1,.777.1c1.1,3.166,2.869,4.027,6.194,3.167,2.317-.6,1.213-2.857,2.139-4.114a.877.877,0,0,1,.769-.317l.177,4.638c.011.729.88.534,1.5,1.274-3.255,0-6.127-.1-8.987.035-1.933.091-3.2-.1-2.556-2.527A5.326,5.326,0,0,0,118.456,324.151Z" transform="translate(-13.716 -28.096)" fill="#4a4640"/>
    <path id="Path_100" data-name="Path 100" d="M119.312,316.264l-.276-.013-.275.011c-.077-6.53-.077-6.53,5.943-6.538,3.975-.005,3.975-.005,3.936,5.374a3.012,3.012,0,0,1-.518.049c-.094-.1-.189-.2-.285-.292-.535-.885-.173-2.156-1.223-2.815a4.68,4.68,0,0,0-2.284-.276c-3.557-.043-3.557-.039-4.419,3.534A1.743,1.743,0,0,1,119.312,316.264Z" transform="translate(-13.904 -20.736)" fill="#7b6b57"/>
    <path id="Path_101" data-name="Path 101" d="M120.088,317.83c0-5.443,0-5.456,5.613-5.35.924.017,1.949-.308,2.724.535-2.678,1.9-2.678,1.9.1,3.679a1.119,1.119,0,0,0,.371.018c-.288,5.09-.288,5.09-4.946,5.085C120.184,321.8,120.184,321.8,120.088,317.83Z" transform="translate(-14.68 -22.302)" fill="#f1af50"/>
    <path id="Path_102" data-name="Path 102" d="M135.762,317.5c-1.081-.4-2.872.8-3.129-1.478-.294-2.606,1.629-2.008,3.028-2.2A3.585,3.585,0,0,1,135.762,317.5Z" transform="translate(-21.915 -23.102)" fill="#f2c685"/>
  </g>
</svg>
