<svg xmlns="http://www.w3.org/2000/svg" width="31.919" height="29.067" viewBox="0 0 31.919 29.067">
  <g id="Group_177" data-name="Group 177" transform="translate(-259.552 -392.109)">
    <g id="Group_101" data-name="Group 101" transform="translate(268.312 392.585)">
      <path id="Path_128" data-name="Path 128" d="M275.715,405.773c0-2.971-.039-5.944.015-8.914.048-2.644,1.165-3.8,3.788-3.832q6.346-.086,12.694,0c2.6.034,3.77,1.2,3.793,3.838.051,6.032.02,12.065.014,18.1,0,2.435-1.32,3.691-3.671,3.723-4.32.06-8.642.03-12.963-.022-2.568-.03-3.7-1.47-3.679-3.979C275.734,411.716,275.712,408.745,275.715,405.773Z" transform="translate(-275.702 -392.986)" fill="#5b5347"/>
      <path id="Path_129" data-name="Path 129" d="M277.838,406.576c0-2.879.029-5.759-.009-8.638-.026-1.911.856-2.834,2.759-2.83q6.208.011,12.416,0c1.856-.005,2.863.8,2.86,2.746q-.02,8.908.009,17.817c.009,1.913-.885,2.825-2.778,2.821-4.139-.009-8.278-.028-12.416,0-2.06.011-2.906-.97-2.859-3C277.888,412.517,277.837,409.546,277.838,406.576Z" transform="translate(-276.67 -393.956)" fill="#fefdfd"/>
    </g>
    <path id="Path_130" data-name="Path 130" d="M288.171,398.516q3.249,0,6.5,0c.549,0,.861.115.943.336.091.244-.214.453-.718.489-.142.01-.288.007-.432.007H281.9c-.1,0-.193,0-.289,0-.555-.014-.881-.174-.885-.421s.439-.416.9-.414c1.892.009,3.786,0,5.679,0Z" transform="translate(-9.688 -2.93)" fill="#f3b14e"/>
    <path id="Path_131" data-name="Path 131" d="M289.368,411.05h5.261c.445,0,.7.04.763.118s-.174.159-.581.171c-.115,0-.234,0-.35,0h-10.4c-.449,0-.713-.061-.716-.148s.355-.145.729-.145q2.3,0,4.6,0Z" transform="translate(-10.885 -8.667)" fill="#f3b14e"/>
    <path id="Path_132" data-name="Path 132" d="M289.368,412.025h5.261c.445,0,.7.04.763.118s-.174.158-.581.171c-.115,0-.234,0-.35,0h-10.4c-.449,0-.713-.061-.716-.148s.355-.146.729-.145q2.3,0,4.6,0Z" transform="translate(-10.885 -9.113)" fill="#f3b14e"/>
    <path id="Path_133" data-name="Path 133" d="M289.368,413h5.261c.445,0,.7.041.763.118s-.174.159-.581.171c-.115,0-.234,0-.35,0h-10.4c-.449,0-.713-.061-.716-.147s.355-.146.729-.145c1.532,0,3.065,0,4.6,0Z" transform="translate(-10.885 -9.559)" fill="#f3b14e"/>
    <path id="Path_134" data-name="Path 134" d="M289.368,413.975h5.261c.445,0,.7.04.763.118s-.174.159-.581.171c-.115,0-.234,0-.35,0h-10.4c-.449,0-.713-.061-.716-.148s.355-.145.729-.145q2.3,0,4.6,0Z" transform="translate(-10.885 -10.005)" fill="#f3b14e"/>
    <path id="Path_135" data-name="Path 135" d="M288.171,401.169c2.166,0,4.331,0,6.5,0,.549,0,.861.63.943,1.839.091,1.332-.214,2.481-.718,2.672a1.181,1.181,0,0,1-.432.036H281.9a2.138,2.138,0,0,1-.289-.005c-.555-.075-.881-.949-.885-2.3s.439-2.275.9-2.263c1.892.051,3.786.02,5.679.02Z" transform="translate(-9.688 -4.136)" fill="#f3b14e"/>
    <path id="Path_136" data-name="Path 136" d="M288.171,418.908q3.249,0,6.5,0c.549,0,.861.115.943.336.091.243-.214.453-.718.489-.142.01-.288.006-.432.006H281.9c-.1,0-.193,0-.289,0-.555-.014-.881-.174-.885-.421s.439-.416.9-.414c1.892.009,3.786,0,5.679,0Z" transform="translate(-9.688 -12.261)" fill="#f3b14e"/>
    <path id="Path_137" data-name="Path 137" d="M289.368,431.442h5.261c.445,0,.7.04.763.118s-.174.158-.581.171c-.115,0-.234,0-.35,0h-10.4c-.449,0-.713-.061-.716-.148s.355-.146.729-.145q2.3,0,4.6,0Z" transform="translate(-10.885 -17.998)" fill="#f3b14e"/>
    <path id="Path_138" data-name="Path 138" d="M289.368,432.417h5.261c.445,0,.7.04.763.118s-.174.158-.581.171c-.115,0-.234,0-.35,0h-10.4c-.449,0-.713-.061-.716-.148s.355-.146.729-.145c1.532,0,3.065,0,4.6,0Z" transform="translate(-10.885 -18.444)" fill="#f3b14e"/>
    <path id="Path_139" data-name="Path 139" d="M289.368,433.392h5.261c.445,0,.7.041.763.118s-.174.159-.581.171c-.115,0-.234,0-.35,0h-10.4c-.449,0-.713-.061-.716-.148s.355-.145.729-.145q2.3,0,4.6,0Z" transform="translate(-10.885 -18.889)" fill="#f3b14e"/>
    <path id="Path_140" data-name="Path 140" d="M289.368,434.367h5.261c.445,0,.7.04.763.118s-.174.159-.581.171c-.115,0-.234,0-.35,0h-10.4c-.449,0-.713-.061-.716-.148s.355-.145.729-.145q2.3,0,4.6,0Z" transform="translate(-10.885 -19.336)" fill="#f3b14e"/>
    <path id="Path_141" data-name="Path 141" d="M288.171,421.561c2.166,0,4.331,0,6.5,0,.549,0,.861.63.943,1.839.091,1.332-.214,2.48-.718,2.672a1.168,1.168,0,0,1-.432.036q-6.281,0-12.562,0a2.138,2.138,0,0,1-.289-.005c-.555-.075-.881-.949-.885-2.3s.439-2.275.9-2.263c1.892.051,3.786.02,5.679.02Z" transform="translate(-9.688 -13.467)" fill="#f3b14e"/>
    <g id="Group_102" data-name="Group 102" transform="translate(259.552 392.109)">
      <path id="Path_142" data-name="Path 142" d="M262.848,409.953c-.987-2.8-2.016-5.592-2.954-8.411-.835-2.509-.165-3.967,2.3-4.874q5.956-2.194,11.97-4.226c2.462-.833,3.955-.122,4.855,2.356,2.057,5.671,4.036,11.371,6.038,17.062.809,2.3-.016,3.919-2.221,4.733-4.053,1.495-8.139,2.906-12.231,4.3-2.432.826-3.981-.153-4.794-2.527C264.845,415.55,263.835,412.756,262.848,409.953Z" transform="translate(-259.552 -392.109)" fill="#5b5347"/>
      <path id="Path_143" data-name="Path 143" d="M264.868,410.4c-.958-2.716-1.89-5.441-2.885-8.143-.661-1.793-.136-2.957,1.659-3.587q5.857-2.057,11.708-4.136c1.748-.623,2.967-.2,3.61,1.637q2.948,8.406,5.94,16.8c.645,1.8.106,2.959-1.68,3.585-3.905,1.37-7.815,2.73-11.709,4.13-1.938.7-3.063.053-3.7-1.878C266.893,415.98,265.857,413.2,264.868,410.4Z" transform="translate(-260.539 -393.094)" fill="#fefdfd"/>
    </g>
    <path id="Path_144" data-name="Path 144" d="M271.461,399.82q3.063-1.081,6.127-2.162c.518-.183.849-.178,1,0,.166.2-.051.5-.515.7-.131.056-.27.1-.406.15l-11.845,4.183c-.091.032-.181.066-.273.1-.528.171-.888.13-.974-.1s.275-.538.711-.689c1.788-.622,3.571-1.257,5.356-1.888Z" transform="translate(-2.293 -2.477)" fill="#f3b14e"/>
    <path id="Path_145" data-name="Path 145" d="M276.7,411.96l4.96-1.751c.42-.148.67-.194.759-.143s-.11.207-.491.355c-.107.042-.219.08-.329.119l-9.59,3.386-.221.078c-.425.145-.693.18-.724.1s.286-.256.639-.379q2.169-.761,4.336-1.53Z" transform="translate(-5.265 -8.208)" fill="#f3b14e"/>
    <path id="Path_146" data-name="Path 146" d="M277.021,412.88l4.96-1.751c.419-.148.67-.194.759-.143s-.111.208-.491.355c-.107.041-.219.08-.329.118l-9.59,3.386-.221.078c-.426.145-.693.18-.725.1s.286-.255.639-.379q2.17-.761,4.336-1.53Z" transform="translate(-5.413 -8.628)" fill="#f3b14e"/>
    <path id="Path_147" data-name="Path 147" d="M277.345,413.8l4.96-1.751c.42-.148.67-.194.759-.143s-.11.208-.491.355c-.107.041-.219.08-.329.119l-9.59,3.386-.221.078c-.425.145-.693.18-.724.1s.286-.255.639-.379q2.169-.761,4.336-1.53Z" transform="translate(-5.562 -9.049)" fill="#f3b14e"/>
    <path id="Path_148" data-name="Path 148" d="M277.67,414.718l4.96-1.751c.419-.148.67-.194.759-.143s-.111.207-.491.355c-.107.041-.219.08-.329.119l-9.59,3.386-.221.078c-.425.145-.693.181-.725.1s.287-.256.639-.38q2.169-.761,4.336-1.53Z" transform="translate(-5.71 -9.47)" fill="#f3b14e"/>
    <path id="Path_149" data-name="Path 149" d="M272.627,402.42c2.042-.72,4.083-1.446,6.128-2.159.519-.181,1.021.307,1.5,1.421.529,1.226.624,2.41.213,2.759a1.178,1.178,0,0,1-.4.178q-5.922,2.094-11.845,4.183a2.186,2.186,0,0,1-.274.091c-.549.114-1.147-.6-1.6-1.878s-.344-2.292.1-2.434c1.8-.582,3.577-1.242,5.362-1.872Z" transform="translate(-2.978 -3.713)" fill="#f3b14e"/>
    <path id="Path_150" data-name="Path 150" d="M278.25,419.049q3.063-1.081,6.127-2.163c.518-.182.849-.178,1,0,.167.2-.051.5-.515.7-.131.056-.27.1-.406.15l-11.845,4.183c-.091.032-.181.065-.272.095-.528.172-.889.13-.975-.1s.276-.538.711-.69c1.788-.621,3.571-1.257,5.356-1.887Z" transform="translate(-5.4 -11.276)" fill="#f3b14e"/>
    <path id="Path_151" data-name="Path 151" d="M283.485,431.189l4.96-1.751c.42-.148.67-.194.759-.143s-.11.207-.491.355c-.107.041-.219.08-.329.119l-9.59,3.386-.22.078c-.426.145-.693.181-.725.1s.286-.256.639-.38q2.169-.761,4.336-1.53Z" transform="translate(-8.371 -17.007)" fill="#f3b14e"/>
    <path id="Path_152" data-name="Path 152" d="M283.81,432.108l4.96-1.751c.419-.148.67-.194.759-.143s-.111.207-.491.355c-.107.042-.219.08-.329.119l-9.59,3.386-.221.077c-.425.145-.693.181-.725.1s.287-.256.64-.379q2.169-.761,4.336-1.53Z" transform="translate(-8.52 -17.427)" fill="#f3b14e"/>
    <path id="Path_153" data-name="Path 153" d="M284.134,433.027l4.96-1.751c.42-.148.67-.194.759-.143s-.11.207-.491.355c-.107.042-.22.08-.33.119l-9.59,3.386-.22.078c-.426.145-.693.18-.725.1s.286-.256.639-.379q2.169-.761,4.336-1.53Z" transform="translate(-8.668 -17.848)" fill="#f3b14e"/>
    <path id="Path_154" data-name="Path 154" d="M284.459,433.946l4.96-1.751c.42-.148.67-.194.759-.143s-.111.207-.491.355c-.107.042-.219.08-.329.119l-9.59,3.386-.221.078c-.425.145-.693.18-.724.1s.286-.255.639-.379q2.169-.761,4.336-1.53Z" transform="translate(-8.817 -18.268)" fill="#f3b14e"/>
    <path id="Path_155" data-name="Path 155" d="M279.416,421.649c2.043-.72,4.083-1.446,6.128-2.159.519-.181,1.021.307,1.5,1.42.529,1.226.624,2.41.213,2.759a1.169,1.169,0,0,1-.4.177q-5.922,2.093-11.845,4.183a2.1,2.1,0,0,1-.274.091c-.548.114-1.147-.6-1.6-1.878s-.344-2.291.1-2.433c1.8-.583,3.577-1.242,5.362-1.872Z" transform="translate(-6.085 -12.512)" fill="#f3b14e"/>
    <path id="Path_156" data-name="Path 156" d="M306.943,414.856a3.916,3.916,0,1,1,3.924-3.916A3.93,3.93,0,0,1,306.943,414.856Zm.776-5.552a1.179,1.179,0,0,0-.207-.7.651.651,0,0,0-1.1-.033.988.988,0,0,0-.147.262,1.385,1.385,0,0,0-.069.663c.084.73.162,1.46.242,2.191.012.108.015.217.034.323a.459.459,0,0,0,.693.391.348.348,0,0,0,.25-.324c.053-.539.118-1.077.177-1.615Q307.656,409.881,307.719,409.3Zm-.821,4.278a.622.622,0,0,0,.447-.123.335.335,0,0,0,.044-.488.65.65,0,0,0-.879,0,.274.274,0,0,0-.017.411A.477.477,0,0,0,306.9,413.582Z" transform="translate(-19.896 -6.825)" fill="#fefefe" stroke="#685744" stroke-miterlimit="10" stroke-width="1"/>
  </g>
</svg>
