<svg xmlns="http://www.w3.org/2000/svg" width="23.852" height="19.569" viewBox="0 0 23.852 19.569">
  <path id="Path_12585" data-name="Path 12585" d="M45.439,513.642c-5.729-1.107-11.564,1.35-12.716,7.069h0a10.479,10.479,0,0,0,.092,4.5,3.143,3.143,0,0,1-.311,2.31l-2.445,2.7a.207.207,0,0,0,.146.346l5.432-.492a2.86,2.86,0,0,1,1.255.54c4.507,3.295,10.86,3.257,14.493-1.088a10.681,10.681,0,0,0,2.266-4.687c1.115-5.759-2.365-10.067-8.124-11.182Z" transform="translate(-30.006 -513.383)" fill="#707070"/>
</svg>
