<svg xmlns="http://www.w3.org/2000/svg" width="37.063" height="27.338" viewBox="0 0 37.063 27.338">
  <g id="Group_167" data-name="Group 167" transform="translate(-74.751 -391.512)">
    <path id="Path_114" data-name="Path 114" d="M109.062,419.934c-3.028.64-5.583,1.352-8.186,1.681-2.621.332-5.341.752-8.338-.874,2.842-1.222,5.75.956,8.11-1.645-4.14.439-6.932-2.623-10.553-3.464-3.413-.792-6.553.441-9.546,1.748-.7-1.155.045-1.4.565-1.642,4.224-1.981,8.491-2.4,12.733-.1,1.868,1.014,3.713,1.971,5.922,1.9.4-.012,1.047.07,1.179.32,1.7,3.216,4.076,1.454,6.291.925,1.108-.264,2.148-.18,2.717.963a1.91,1.91,0,0,1-.835,2.711c-5.77,3.233-11.7,6.251-18.515,3.678-5.146-1.945-10.192-3.161-15.856-.7C76,423.479,76,423.457,77.31,423.148a16.463,16.463,0,0,1,11.118.874c7.291,3.473,13.7,1.023,19.957-2.734C108.591,421.165,108.646,420.789,109.062,419.934Z" transform="translate(0 -8.26)" fill="#585145"/>
    <path id="Path_115" data-name="Path 115" d="M122.82,406.655c.093,2.727-2.069,4.414-4.431,3.5a3.931,3.931,0,0,0-3.5.013c-1.7.82-3.1.035-4.018-1.43a3.035,3.035,0,0,1,.543-4.014,13.425,13.425,0,0,1,1.433-1.225c1.348-1.03,2.127-3.444,4.214-2.7,2.381.844,3.853,3.1,5.534,4.94C122.84,406,122.794,406.529,122.82,406.655Z" transform="translate(-13.029 -3.347)" fill="#5c544a"/>
    <path id="Path_116" data-name="Path 116" d="M123.15,396.442a1.783,1.783,0,0,1-1.856-1.89c-.1-1.327.28-2.673,1.729-2.991,1.35-.3,1.818.83,1.877,1.96A2.721,2.721,0,0,1,123.15,396.442Z" transform="translate(-17.031 0)" fill="#665e52"/>
    <path id="Path_117" data-name="Path 117" d="M110.941,399.515c0,1.125-.167,2.161-1.4,2.157-1.584-.005-2.034-1.286-2.219-2.574-.146-1.023.211-2.07,1.381-2.045C110.2,397.086,110.723,398.3,110.941,399.515Z" transform="translate(-11.91 -2.028)" fill="#625a51"/>
    <path id="Path_118" data-name="Path 118" d="M117.164,394.063c-.029,1.139-.194,2.309-1.538,2.32-1.407.011-1.865-1.161-1.934-2.377-.067-1.189.1-2.535,1.649-2.431C116.653,391.664,117.1,392.863,117.164,394.063Z" transform="translate(-14.249 -0.021)" fill="#63594a"/>
    <path id="Path_119" data-name="Path 119" d="M131.171,398.961c-.21,1.418-.641,2.667-2.194,2.72-1.292.044-1.4-1.088-1.324-2.049.1-1.21.544-2.35,1.956-2.465C130.859,397.065,131.129,398.012,131.171,398.961Z" transform="translate(-19.357 -2.067)" fill="#5c5549"/>
    <path id="Path_120" data-name="Path 120" d="M112.828,407.5c.791-1.856,2.6-3.238,4.289-4.448,1.231-.884,1.934,1.1,2.852,1.823a17,17,0,0,1,2.043,1.937,1.591,1.591,0,0,1,.081,2.036c-.477.761-1.241,1.4-2.083.919a5.029,5.029,0,0,0-5-.011C113.876,410.263,112.883,409.249,112.828,407.5Z" transform="translate(-13.938 -4.144)" fill="#f2af4e"/>
    <path id="Path_121" data-name="Path 121" d="M123.361,408.174c-1.015-.379-2.7.749-2.939-1.388-.276-2.448,1.53-1.886,2.844-2.067A3.366,3.366,0,0,1,123.361,408.174Z" transform="translate(-16.707 -4.835)" fill="#f2c685"/>
  </g>
</svg>
