<svg xmlns="http://www.w3.org/2000/svg"  viewBox="0 0 123.055 52.91">
  <g id="Group_152" data-name="Group 152" transform="translate(-69.674 -60.653)">
    <g id="Group_92" data-name="Group 92">
      <path id="Path_93" data-name="Path 93" d="M26.263,0C32.515,0,34.73,4.634,38.7,9.015c2.518,2.781,2.587,3.509,4.8,7.153.041.066-.121,2.241,0,2.453,1.52,2.651,5.62,5.986,5.62,9.5,0,14.723-8.87,23.4-22.856,23.4S2.01,40.905,2.01,26.183,12.277,0,26.263,0Z" transform="translate(69.905 62.038)" fill="#fff"/>
      <path id="Path_67" data-name="Path 67" d="M974.666,161.282c2.515,4.593-2.326,9,.865,11.241,3.977,2.788,6.787-5.139,7.228-10.569.273-3.365.958-13.423-5.223-15.153a4.122,4.122,0,0,0-4.1.68c-2.966,2.215-3.551,5.426-2.351,7.017C972.147,155.9,973.421,159.006,974.666,161.282Z" transform="translate(-865.734 -65.096)" fill="#9b9997"/>
      <path id="Path_68" data-name="Path 68" d="M810.914,96.821c5.185,8.219,19.212,10.742,19.212,5.89,0-4.458-23.834-12.142-10.971-29.859,3.777-5.2,19.227-4.1,20.22-9.542,1.776-9.727-17.4-10.121-24.678-4.666C811.2,61.263,797.682,75.845,810.914,96.821Z" transform="translate(-735.55 6.914)" fill="#cbaf6d"/>
      <path id="Path_69" data-name="Path 69" d="M847.855,67.037s2.887,4.528,7.359,0c0,0,2.038-4.981-4.019-6.057l-4.7-7.925s-3.623-4.189-9.283-.566c0,0-5.66,2.921-5.547,11.083,0,0,.113,4.37,4.189,4.143,0,0,3.623-.113,3.623-6.057,0,0-.34-7.755-9.453-6.962,0,0-6.566-.906-12.623,13.528a27.853,27.853,0,0,0,2.491,23.944s6.736,9.978,18.736,9.942c0,0,18.963,1.606,22.415-14.13,0,0,2.151-13.019-4.812-17.717l-2.377,5.151s-5.094-2.151-9,.509l-3-6-2.83,6.17" transform="translate(-743.86 10.151)" fill="none" stroke="#707070" stroke-miterlimit="10" stroke-width="1"/>
      <ellipse id="Ellipse_12" data-name="Ellipse 12" cx="0.559" cy="0.559" rx="0.559" ry="0.559" transform="translate(100.779 69.127)" stroke="#000" stroke-miterlimit="10" stroke-width="0.5"/>
      <ellipse id="Ellipse_15" data-name="Ellipse 15" cx="0.559" cy="0.559" rx="0.559" ry="0.559" transform="translate(100.779 69.127)" fill="gray" stroke="gray" stroke-miterlimit="10" stroke-width="0.5"/>
      <ellipse id="Ellipse_13" data-name="Ellipse 13" cx="0.573" cy="0.573" rx="0.573" ry="0.573" transform="translate(99.716 91.768)" stroke="#000" stroke-miterlimit="10" stroke-width="0.5"/>
      <ellipse id="Ellipse_17" data-name="Ellipse 17" cx="0.573" cy="0.573" rx="0.573" ry="0.573" transform="translate(99.716 91.768)" fill="gray" stroke="gray" stroke-miterlimit="10" stroke-width="0.5"/>
      <ellipse id="Ellipse_14" data-name="Ellipse 14" cx="0.559" cy="0.559" rx="0.559" ry="0.559" transform="translate(109.64 91.223)" stroke="#000" stroke-miterlimit="10" stroke-width="0.5"/>
      <ellipse id="Ellipse_16" data-name="Ellipse 16" cx="0.559" cy="0.559" rx="0.559" ry="0.559" transform="translate(109.64 91.223)" fill="gray" stroke="gray" stroke-miterlimit="10" stroke-width="0.5"/>
      <path id="Path_70" data-name="Path 70" d="M971.7,218.215s1.017-.2,1.162,0-1.162,1.578-1.162,1.578-1.308-1.381-1.162-1.578S971.7,218.215,971.7,218.215Z" transform="translate(-865.751 -121.477)" stroke="#000" stroke-miterlimit="10" stroke-width="0.25"/>
      <path id="Path_90" data-name="Path 90" d="M971.7,218.215s1.017-.2,1.162,0-1.162,1.578-1.162,1.578-1.308-1.381-1.162-1.578S971.7,218.215,971.7,218.215Z" transform="translate(-865.751 -121.477)" fill="gray" stroke="gray" stroke-miterlimit="10" stroke-width="0.25"/>
      <path id="Path_71" data-name="Path 71" d="M953.8,222.633s.1,4.771-5.991,2.432" transform="translate(-847.855 -125.026)" fill="none" stroke="#000" stroke-miterlimit="10" stroke-width="0.5"/>
      <path id="Path_91" data-name="Path 91" d="M953.8,222.633s.1,4.771-5.991,2.432" transform="translate(-847.855 -125.026)" fill="none" stroke="gray" stroke-miterlimit="10" stroke-width="0.5"/>
      <path id="Path_72" data-name="Path 72" d="M974.483,222.633s-.1,4.771,5.992,2.432" transform="translate(-868.867 -125.026)" fill="none" stroke="#000" stroke-miterlimit="10" stroke-width="0.5"/>
      <path id="Path_92" data-name="Path 92" d="M974.483,222.633s-.1,4.771,5.992,2.432" transform="translate(-868.867 -125.026)" fill="none" stroke="gray" stroke-miterlimit="10" stroke-width="0.5"/>
      <path id="Path_73" data-name="Path 73" d="M991.9,111.544s1.017-.2,1.162,0-1.162,1.578-1.162,1.578-1.307-1.381-1.162-1.578S991.9,111.544,991.9,111.544Z" transform="translate(-881.661 -37.457)" stroke="#000" stroke-miterlimit="10" stroke-width="0.25"/>
      <path id="Path_87" data-name="Path 87" d="M991.9,111.544s1.017-.2,1.162,0-1.162,1.578-1.162,1.578-1.307-1.381-1.162-1.578S991.9,111.544,991.9,111.544Z" transform="translate(-881.661 -37.457)" fill="gray" stroke="gray" stroke-miterlimit="10" stroke-width="0.25"/>
      <text id="Pet_Love" data-name="Pet Love" transform="translate(127.508 108.835)" fill="gray" font-size="8" font-family="Poppins-ExtraLight, Poppins" font-weight="200" letter-spacing="0.569em"><tspan x="0" y="0">Pet Love</tspan></text>
      <g id="Group_90" data-name="Group 90" transform="translate(127.357 64.344)">
        <g id="Group_87" data-name="Group 87" transform="translate(0 0.291)">
          <path id="Path_74" data-name="Path 74" d="M603.086,424.5a56.111,56.111,0,0,1-5.625,11.216.71.71,0,0,1-1,.18l-.04-.028a.7.7,0,0,1-.171-.97,48.049,48.049,0,0,0,5.51-10.883.706.706,0,0,1,1.1-.331h0A.716.716,0,0,1,603.086,424.5Z" transform="translate(-596.124 -405.757)" fill="gray"/>
          <path id="Path_75" data-name="Path 75" d="M605.634,384.47l-.073.091a.673.673,0,0,1-.977.076,39.168,39.168,0,0,0-5.134-3.944.669.669,0,0,1-.159-1h0a.672.672,0,0,1,.872-.143,46.894,46.894,0,0,1,5.38,3.983A.678.678,0,0,1,605.634,384.47Z" transform="translate(-598.533 -370.474)" fill="gray"/>
          <path id="Path_76" data-name="Path 76" d="M611.321,339.59l-.055.063a.658.658,0,0,1-.937.055,44.739,44.739,0,0,0-5.211-3.98.661.661,0,0,1-.168-.952h0a.667.667,0,0,1,.9-.154,58.121,58.121,0,0,1,5.407,4.024A.664.664,0,0,1,611.321,339.59Z" transform="translate(-603.08 -334.514)" fill="gray"/>
          <path id="Path_77" data-name="Path 77" d="M649.056,336.77a49.684,49.684,0,0,1-14.528,2.945.67.67,0,0,0-.624.664v10.329a22.918,22.918,0,0,1-4.68,14.472.672.672,0,0,1-.91.135l-.092-.063a.669.669,0,0,1-.13-.977,20.825,20.825,0,0,0,4.412-13.566V339.2a.671.671,0,0,1,.638-.666q9.8-.51,15.389-2.987a.662.662,0,0,1,.749.143h0A.667.667,0,0,1,649.056,336.77Z" transform="translate(-621.581 -335.292)" fill="gray"/>
          <path id="Path_78" data-name="Path 78" d="M684.361,366.613a40.639,40.639,0,0,1-10.682,2.616.528.528,0,0,0-.467.521v17.128a.527.527,0,0,0,.727.489,28.844,28.844,0,0,0,4.081-2.19.528.528,0,0,1,.793.288l.053.178a.535.535,0,0,1-.241.612,60.585,60.585,0,0,1-6.33,3.273.527.527,0,0,1-.668-.225l-.141-.246a.561.561,0,0,1,.083-.634,1.289,1.289,0,0,0,.243-.827V368.65a.53.53,0,0,1,.479-.523,36.7,36.7,0,0,0,11.49-2.677.522.522,0,0,1,.639.157l.151.2A.528.528,0,0,1,684.361,366.613Z" transform="translate(-656.38 -359.231)" fill="gray"/>
          <path id="Path_79" data-name="Path 79" d="M710.918,414.707l-.035.036a.665.665,0,0,1-.9.045q-6.962-5.956-8.115-16.979a.668.668,0,0,1,.509-.716h0a.66.66,0,0,1,.807.577,34.241,34.241,0,0,0,.886,4.883.663.663,0,0,0,1.071.325,26.039,26.039,0,0,0,4.383-4.581.662.662,0,0,1,.951-.137l.04.032a.663.663,0,0,1,.108.929,38.04,38.04,0,0,1-5.506,5.386.67.67,0,0,0-.2.749,20.426,20.426,0,0,0,5.951,8.476A.663.663,0,0,1,710.918,414.707Z" transform="translate(-680.74 -384.578)" fill="gray"/>
        </g>
        <g id="Group_86" data-name="Group 86" transform="translate(34.991 0)">
          <path id="Path_63" data-name="Path 63" d="M1664.574,65.715c-.17.438-.329.881-.52,1.31a.334.334,0,0,1-.3.126c-.094-.026-.243-.2-.222-.248.2-.465.422-.917.64-1.373Z" transform="translate(-1650.867 -54.198)" fill="none"/>
          <path id="Path_66" data-name="Path 66" d="M1664.547,60.772c-.31-.112-.622-.219-.924-.35a3.092,3.092,0,0,1,.109-.355l.957.316Z" transform="translate(-1650.939 -49.837)" fill="none"/>
          <path id="Path_80" data-name="Path 80" d="M783.453,452.879a43.963,43.963,0,0,1-9.578,4.781.7.7,0,0,1-.821-.283h0a.688.688,0,0,1,.366-1.02,38.742,38.742,0,0,0,9.236-4.652.688.688,0,0,1,.932.144l.024.031A.693.693,0,0,1,783.453,452.879Z" transform="translate(-772.617 -427.908)" fill="gray"/>
          <path id="Path_81" data-name="Path 81" d="M801.024,424.8h-13.2a.64.64,0,0,0-.64.64v8.063a.641.641,0,0,1-.641.641h-.12a.641.641,0,0,1-.641-.641v-8.063a.64.64,0,0,0-.641-.64h-13.2a.64.64,0,0,1-.64-.641h0a.64.64,0,0,1,.64-.641h13.2a.64.64,0,0,0,.641-.64v-1.145a.641.641,0,0,1,.641-.641h.12a.641.641,0,0,1,.641.641v1.145a.64.64,0,0,0,.64.64h13.2a.64.64,0,0,1,.641.641h0A.64.64,0,0,1,801.024,424.8Z" transform="translate(-771.293 -403.51)" fill="gray"/>
          <path id="Path_82" data-name="Path 82" d="M782.924,350.754l-.039.019a.675.675,0,0,1-.946-.4l-.184-.585a.68.68,0,0,0-.756-.462q-4.175.673-6.871,1.053a.674.674,0,0,1-.746-.5l-.056-.217a.665.665,0,0,1,.183-.65,45.377,45.377,0,0,0,4.619-5.256.678.678,0,0,0-.618-1.084l-3.05.37a.675.675,0,0,1-.739-.518l-.041-.177a.666.666,0,0,1,.156-.6,31.226,31.226,0,0,0,4.539-7.438.679.679,0,0,1,.853-.351l.015.006a.678.678,0,0,1,.363.936,41.871,41.871,0,0,1-3.3,5.588.674.674,0,0,0,.627,1.057q1.893-.206,2.748-.321a.655.655,0,0,0,.462-.285q.678-1,1.521-2.392a.677.677,0,0,1,.924-.234h0a.679.679,0,0,1,.222.95,58.056,58.056,0,0,1-6.339,8.356.673.673,0,0,0,.583,1.131q2.08-.285,3.245-.461a.672.672,0,0,0,.51-.945l-.42-.928a.675.675,0,0,1,.327-.889h0a.674.674,0,0,1,.891.3,29.646,29.646,0,0,1,1.661,4.109A.681.681,0,0,1,782.924,350.754Z" transform="translate(-772.903 -333.745)" fill="gray"/>
          <path id="Path_83" data-name="Path 83" d="M832.6,335.408q.382-.705.663-1.342a.721.721,0,0,0-.515-.992h0a.727.727,0,0,0-.82.439,22.572,22.572,0,0,1-1.271,2.615.719.719,0,0,1-.627.356H828.8a.723.723,0,0,0-.723.723v11.571a.723.723,0,0,0,.723.723h6.566a.723.723,0,0,0,.723-.723V337.206a.723.723,0,0,0-.723-.723h-2.13A.724.724,0,0,1,832.6,335.408Zm1.36,12.793H830.2a.723.723,0,0,1-.723-.723V344.09a.723.723,0,0,1,.723-.723h3.764a.723.723,0,0,1,.723.723v3.388A.723.723,0,0,1,833.961,348.2Zm0-6.15H830.2a.723.723,0,0,1-.723-.723v-2.791a.723.723,0,0,1,.723-.723h3.764a.723.723,0,0,1,.723.723v2.791A.723.723,0,0,1,833.961,342.051Z" transform="translate(-816.731 -333.058)" fill="gray"/>
          <path id="Path_84" data-name="Path 84" d="M878.234,456.795l-.042.053a.7.7,0,0,1-.933.156,74.046,74.046,0,0,0-8.928-4.856.706.706,0,0,1-.258-1.08h0a.708.708,0,0,1,.841-.2,77.562,77.562,0,0,1,9.136,4.894A.71.71,0,0,1,878.234,456.795Z" transform="translate(-848.619 -427.282)" fill="gray"/>
          <path id="Path_85" data-name="Path 85" d="M883.122,350.757l-.041.021a.678.678,0,0,1-.952-.408l-.176-.575a.679.679,0,0,0-.744-.473l-6.776.962a.678.678,0,0,1-.75-.494l-.064-.233a.669.669,0,0,1,.181-.658,40.114,40.114,0,0,0,4.421-5.172.681.681,0,0,0-.63-1.079l-3.248.4a.679.679,0,0,1-.745-.521l-.037-.164a.67.67,0,0,1,.164-.609,29.15,29.15,0,0,0,4.529-7.427.681.681,0,0,1,.859-.357h0a.683.683,0,0,1,.366.944,46.309,46.309,0,0,1-3.335,5.566.675.675,0,0,0,.636,1.056l2.854-.341a.69.69,0,0,0,.5-.315q.8-1.262,1.415-2.313a.676.676,0,0,1,.929-.237h0a.683.683,0,0,1,.233.94,52.693,52.693,0,0,1-6,8.3.677.677,0,0,0,.579,1.133q1.7-.2,3.148-.414a.68.68,0,0,0,.513-.966q-.208-.445-.426-.877a.678.678,0,0,1,.319-.925h0a.68.68,0,0,1,.886.3,25.481,25.481,0,0,1,1.746,4.131A.673.673,0,0,1,883.122,350.757Z" transform="translate(-853.119 -333.755)" fill="gray"/>
        </g>
      </g>
    </g>
  </g>
</svg>
