<svg xmlns="http://www.w3.org/2000/svg" width="25.841" height="28.649" viewBox="0 0 25.841 28.649">
  <g id="Group_162" data-name="Group 162" transform="translate(-207.894 -279.049)">
    <path id="Path_103" data-name="Path 103" d="M218.875,307.577c-2.491,0-4.983-.06-7.472.017-2.319.072-3.6-.838-3.415-3.269.4-5.224-1.075-10.6,1.27-15.667-1.93-2.722.015-5.048.749-7.508a2.62,2.62,0,0,1,2.964-2.074c4.876.084,9.756.093,14.631-.027,1.726-.042,2.225.8,2.788,2.2a51.079,51.079,0,0,1,3.344,19.117c.027,4.857-2.523,6.339-7.09,7.118-2.521.431-5.176.077-7.77.077Z" fill="#544e43"/>
    <path id="Path_104" data-name="Path 104" d="M230.144,284.133c3.727,6.617,3.907,13.537,3.6,20.542-.149,3.425-3.083,3.97-5.262,4.146-5.266.425-10.588.164-15.887.179-.891,0-1.877-.184-1.818-1.23.292-5.139-.971-10.357.918-15.429.636-1.708,1.442-2.455,3.35-2.349,3.108.171,6.25-.159,9.344.106,2.669.228,4.058-.712,4.612-3.265A16.14,16.14,0,0,1,230.144,284.133Z" transform="translate(-1.46 -2.71)" fill="#fefefd"/>
    <path id="Path_105" data-name="Path 105" d="M219.892,287.557a14.508,14.508,0,0,1-3.719-.068c-1.262-.346-3.487,1.444-3.707-1.032a4.182,4.182,0,0,1,4.166-4.58c3.634-.019,7.268.044,10.9-.029,1.682-.034,2.455.074,1.744,2.184-.874,2.591-2.006,4.125-5.032,3.571A24.631,24.631,0,0,0,219.892,287.557Z" transform="translate(-2.427 -1.489)" fill="#fcfcfb"/>
    <path id="Path_106" data-name="Path 106" d="M228.71,319.1c-.238,1.22-1.215,2.766-2.32,2.138-2.1-1.194-5.818,2.311-6.521-2.25-.211-1.366,3.213-4.653,4.517-4.554C225.585,314.522,228.716,317.8,228.71,319.1Z" transform="translate(-6.378 -18.859)" fill="#6d604f"/>
    <path id="Path_107" data-name="Path 107" d="M250.852,294.389c.072.278.259.6.2.829-1.47,5.588-.7,11.421-1.513,17.092C249,306.279,248.377,300.25,250.852,294.389Z" transform="translate(-21.937 -8.177)" fill="#98928a"/>
    <path id="Path_108" data-name="Path 108" d="M225.259,307.236c-.061,1.042-.35,1.763-1.244,1.65-.939-.119-1.3-.905-1.321-1.811-.02-.793.285-1.589,1.1-1.571C224.916,305.528,225.22,306.476,225.259,307.236Z" transform="translate(-7.888 -14.101)" fill="#736756"/>
    <path id="Path_109" data-name="Path 109" d="M217.718,310.839a1.763,1.763,0,0,1,1.469,1.693c.125.761-.036,1.545-.954,1.554-.954.009-1.354-.793-1.485-1.636A1.261,1.261,0,0,1,217.718,310.839Z" transform="translate(-4.704 -16.945)" fill="#726450"/>
    <path id="Path_110" data-name="Path 110" d="M237.839,310.774a1.315,1.315,0,0,1,.924,1.71c-.15.9-.647,1.645-1.568,1.562-.792-.072-1.133-.827-.916-1.643A1.944,1.944,0,0,1,237.839,310.774Z" transform="translate(-15.096 -16.91)" fill="#786854"/>
    <path id="Path_111" data-name="Path 111" d="M232.993,307.086c-.188.79-.4,1.666-1.357,1.789-.939.12-1.186-.668-1.186-1.4,0-.94.207-1.961,1.387-1.955C232.625,305.521,232.928,306.3,232.993,307.086Z" transform="translate(-12.023 -14.108)" fill="#746451"/>
    <path id="Path_112" data-name="Path 112" d="M228.743,320.185c-.148,1.337-1.161,1.841-1.746,1.29-1.515-1.428-4.377,2.135-4.827-1.186-.19-1.4,1.842-3.205,3.247-3.172C226.788,317.149,228.126,318.759,228.743,320.185Z" transform="translate(-7.603 -20.291)" fill="#f3b14e"/>
    <path id="Path_113" data-name="Path 113" d="M225.143,321.07c-.764-.285-2.03.564-2.212-1.045-.208-1.842,1.151-1.419,2.14-1.555A2.533,2.533,0,0,1,225.143,321.07Z" transform="translate(-8.004 -21.013)" fill="#f2c685"/>
  </g>
</svg>
