<svg xmlns="http://www.w3.org/2000/svg" width="25.519" height="27.053" viewBox="0 0 25.519 27.053">
  <g id="Group_182" data-name="Group 182" transform="translate(-5413.875 802.125)">
    <g id="Group_106" data-name="Group 106" transform="translate(5414 -802)">
      <g id="Group_104" data-name="Group 104" transform="translate(9.221 9.591)">
        <path id="Path_157" data-name="Path 157" d="M382.836,424c0,.1-.1.146-.293.146q-.23,0-.674-.037c-.295-.025-.52-.036-.672-.036s-.385.011-.693.036-.538.037-.691.037q-.343,0-.869-1.84t-1.074-1.864q-.451-.024-2.343-.024h-1.919q-2,0-2.283.024-.438.037-.929,1.871t-.759,1.833h-2.732c-.162,0-.244-.057-.244-.17a2.046,2.046,0,0,1,.171-.546l2.974-8.134q.376-.983,2.283-5.67.34-.776.923-2.343c.1-.308.2-.462.315-.462a5.449,5.449,0,0,1,.68.061,5.584,5.584,0,0,0,.68.06,4.9,4.9,0,0,0,.662-.067,4.888,4.888,0,0,1,.65-.067q.11,0,.3.449.291.681,2.877,7.322Q382.834,423.919,382.836,424Zm-5.659-6.7a20.434,20.434,0,0,0-1.092-3.157q-.458-1.179-.8-2.006a.708.708,0,0,0-1.314.024q-1.893,4.863-1.893,5.126,0,.413.923.486.048.012,1.189.011h1.251Q377.178,417.788,377.177,417.3Z" transform="translate(-366.663 -406.813)" fill="#f3b14e"/>
      </g>
      <g id="Group_105" data-name="Group 105" transform="translate(0 0)">
        <path id="Path_158" data-name="Path 158" d="M370.362,402.31a9.024,9.024,0,0,1-1.931,5.706,7.836,7.836,0,0,1-2.961,2.389,1.849,1.849,0,0,0-.661,2.988l.065.062a.222.222,0,0,1,.072.158q0,.328-.825.389h-1.093a14.581,14.581,0,0,1-1.687-.049q-.467-.11-.622-1.73a1.839,1.839,0,0,0-1.25-1.546,7.945,7.945,0,0,1-3.809-2.77,9.321,9.321,0,0,1,.485-11.764,7.878,7.878,0,0,1,11.887,0A8.958,8.958,0,0,1,370.362,402.31Zm-2.9,0a6.152,6.152,0,0,0-1.493-4.128,4.934,4.934,0,0,0-3.91-1.833,4.858,4.858,0,0,0-3.872,1.87,6.534,6.534,0,0,0,0,8.256,4.825,4.825,0,0,0,3.872,1.882,4.906,4.906,0,0,0,3.922-1.87A6.311,6.311,0,0,0,367.46,402.31Z" transform="translate(-353.801 -393.435)" fill="#544e43" stroke="#544e43" stroke-miterlimit="10" stroke-width="0.25"/>
      </g>
    </g>
  </g>
</svg>
