<svg xmlns="http://www.w3.org/2000/svg" width="22.764" height="22.764" viewBox="0 0 22.764 22.764">
  <path id="Icon_material-shopping-cart" data-name="Icon material-shopping-cart" d="M8.329,21.211a2.276,2.276,0,1,0,2.276,2.276A2.273,2.273,0,0,0,8.329,21.211ZM1.5,3V5.276H3.776l4.1,8.639L6.337,16.7A2.2,2.2,0,0,0,6.053,17.8a2.283,2.283,0,0,0,2.276,2.276H21.988V17.8H8.807a.282.282,0,0,1-.285-.285l.034-.137L9.581,15.52h8.48a2.266,2.266,0,0,0,1.992-1.172l4.075-7.387a1.112,1.112,0,0,0,.137-.546,1.142,1.142,0,0,0-1.138-1.138H6.292L5.222,3ZM19.711,21.211a2.276,2.276,0,1,0,2.276,2.276A2.273,2.273,0,0,0,19.711,21.211Z" transform="translate(-1.5 -3)" fill="#707070"/>
</svg>
