<svg xmlns="http://www.w3.org/2000/svg" width="27.55" height="27.922" viewBox="0 0 27.55 27.922">
  <g id="Group_185" data-name="Group 185" transform="translate(-108.722 -487.694)">
    <path id="Path_159" data-name="Path 159" d="M121.026,516.757c1.588-1.173,3.093-1.731,3.229-3.675.032-.457.389-.584.725-.315.6.483,1.623.49,1.629,1.669.006,1.243.047,2.488-.008,3.728-.05,1.11.282,1.594,1.359,1.524a30.03,30.03,0,0,1,3.99,0c1.586.108,1.847-.841,1.085-1.94-1.521-2.2-.544-4.443-.388-6.665.064-.927.553-1.811.663-2.741.232-1.962.54-3.578,2.949-3.366,1.011.089,1.811-.861,2.028-2.083.2-1.148-.521-1.731-1.245-2.275a11.645,11.645,0,0,1-2.642-2.571,3.381,3.381,0,0,0-4.373-1.068,4.669,4.669,0,0,0-2.507,4.834c.182,1.836-.59,2.23-1.739,2.467a27.715,27.715,0,0,1-3.957.465,3.509,3.509,0,0,0-2.436.777c-.731.716-1.345.362-1.968-.088-.688-.5-.579-1.245-.4-1.973.1-.423.286-.823.372-1.248a1.688,1.688,0,0,0-.722-2.052c-.724-.392-1.29-.046-1.78.508-2.029,2.291-1.391,6.877,1.326,7.993,2.134.877,1.511,2.124.767,3.4a11.027,11.027,0,0,0-1.283,5.862c.01,1.291.368,1.873,1.621,1.763,1.19-.1,2.4.052,3.589-.049.686-.058,1.691.586,1.974-.765C123.155,517.569,122.353,517.1,121.026,516.757Z" transform="translate(-2.05 -4.128)" fill="#575045"/>
    <path id="Path_160" data-name="Path 160" d="M134.437,505.1c1.512,0,2.7.055,3.873-.02a1.736,1.736,0,0,0,1.707-1.269c.283-.964-.471-1.277-.978-1.675a11.144,11.144,0,0,1-2.637-2.574,2.563,2.563,0,0,0-3.613-.742,4.449,4.449,0,0,0-1.859,3.89,1.2,1.2,0,0,0,.839,1.122c.591.211,1.014-.1,1.414-.536a4.594,4.594,0,0,0,.767-2.808c.991,1.622.456,3.955-1.026,4.048-1.988.126-3.464,1.858-5.386,1.7-4.081-.33-6.606,1.09-6.8,6.112-.059,1.571-1.508,2.856-1.58,4.649-.11,2.756-.171,2.753,2.461,2.508.16-.427-.082-.667-.335-.919-1.24-1.238-1.179-2.6.335-3.377a9.086,9.086,0,0,0,4.011-3.1.9.9,0,0,1,.468-.378c.735-.2,3.921,2.46,3.953,3.312.032.876,0,1.754.009,2.631.013,2.021.015,2.021,2.283,1.785-1.594-1.633-.748-2.768.328-4.167,1.762-2.289,2.285-5.208,2.83-8.091C135.7,506.173,134.935,505.918,134.437,505.1Z" transform="translate(-4.68 -4.994)" fill="#fefefe"/>
    <path id="Path_161" data-name="Path 161" d="M116.872,507.985c.093-.358.334-1.109.466-1.882a1.272,1.272,0,0,0-.238-.968c-.264-.245-.606,0-.858.27-1.7,1.8-1.006,5.644,1.2,6.645.472.214,1,.617,1.351-.152.31-.678-.018-1.054-.6-1.317C117.337,510.189,116.807,509.508,116.872,507.985Z" transform="translate(-2.824 -8.214)" fill="#f4f3f1"/>
    <path id="Path_162" data-name="Path 162" d="M128.024,527.427a11.368,11.368,0,0,1-3.143,2.231c-.793.265-1.925.952-1.519,1.553.583.862.89,2.27,2.139,2.477a5.64,5.64,0,0,0,1.232-.08c-.252-1.046-1.716-.8-1.575-2.039.133-1.168,1.125-1.3,1.8-1.816A2.565,2.565,0,0,0,128.024,527.427Z" transform="translate(-6.691 -19.06)" fill="#f2f1ee"/>
    <path id="Path_163" data-name="Path 163" d="M147.686,535.283a4.117,4.117,0,0,1-1.19-4.092c-.309,1.109-2.151,1.109-1.333,2.889C145.738,535.333,146.3,535.909,147.686,535.283Z" transform="translate(-17.191 -20.883)" fill="#f5f4f1"/>
    <path id="Path_164" data-name="Path 164" d="M109.462,488.159a.666.666,0,0,1,.574-.037,1.634,1.634,0,0,1,.5.321c1.228,1.057,2.033,2.554,3.324,3.533a10.51,10.51,0,0,0,2.567,1.3,7.492,7.492,0,0,1,2.541,1.314c.778.741,1.426,1.585,2.145,2.381a19.518,19.518,0,0,0,2.01,1.924,5.707,5.707,0,0,0,2.387,1.469.448.448,0,0,0,.234-.013.371.371,0,0,0,.206-.331,1.1,1.1,0,0,0-.081-.4,2.985,2.985,0,0,1,.043,1.265.642.642,0,0,1-.165.37.6.6,0,0,1-.7-.037,3.967,3.967,0,0,1-.847-.843c-.765-.893-1.691-1.625-2.526-2.449-.6-.6-1.113-1.273-1.663-1.916a7.738,7.738,0,0,0-.948-.984,14.229,14.229,0,0,0-3.34-1.614,9.624,9.624,0,0,1-1.772-.991A7.49,7.49,0,0,1,112.552,491a11.009,11.009,0,0,0-2.983-2.78Z" fill="#f3b14e" stroke="#f3b14e" stroke-miterlimit="10" stroke-width="0.75"/>
    <g id="Group_108" data-name="Group 108" transform="translate(125.195 499.048)">
      <path id="Path_165" data-name="Path 165" d="M140.053,509.813a1.166,1.166,0,0,1,.16-.459,1.5,1.5,0,0,0,1.123.656,1.465,1.465,0,0,0,.658.333,1.508,1.508,0,0,0,.73.235l.022.006.006,0a19.3,19.3,0,0,1,1.034.213c.045,0,.088-.005.131-.008a1.61,1.61,0,0,0,.663.137,1.568,1.568,0,0,0,.829-.223,1.626,1.626,0,0,0,.55-.117.463.463,0,0,1,.018.047.985.985,0,0,1-.006.424c-.232,1.117-.27,1.2-1.15,1.387a4.124,4.124,0,0,1-.506.045c-.118.021-.226.021-.268-.138.315-.482.831-.209,1.208-.405-.121.018-.268.069-.368-.093.011-.311.237-.258.41-.293s-.012-.1.007-.141c-.026-.183-.135-.075-.212-.07a7.159,7.159,0,0,1-4.5-1.13c-.057-.006-.086-.182-.169-.037.027.279.363.34.375.635a.164.164,0,0,1-.1.1c-.022.031-.11-.034-.075.039s-.015-.023.044.029c.18.158.443.238.444.566-.138.114-.257.052-.373-.046C139.887,510.911,139.9,510.851,140.053,509.813Z" transform="translate(-139.973 -509.354)" fill="#585248"/>
      <path id="Path_166" data-name="Path 166" d="M145.03,513.795l-.228-.187c.143-.1-.35-.034-.042-.183a.484.484,0,0,0,.258-.563c-.039-.254-.237-.207-.4-.236a12.477,12.477,0,0,1-2-.479c-.191-.065-.408-.223-.547.071a.47.47,0,0,0,.24.7c-.2-.045-.311-.288-.5-.129-.116.1-.242.035-.365.025a2.6,2.6,0,0,0,.8.438,1.064,1.064,0,0,1,.643.625c.126.381.487.525.73.285A1.761,1.761,0,0,1,145.03,513.795Z" transform="translate(-140.688 -510.658)" fill="#645b4f"/>
      <path id="Path_167" data-name="Path 167" d="M149.968,512.276a1.268,1.268,0,0,0,.612-.249" transform="translate(-144.814 -510.649)" fill="#fcfbfa"/>
      <path id="Path_168" data-name="Path 168" d="M141.271,512.039c.328.062.549.5,1.067.333-.276-.146-.453-.235-.627-.334-.207-.118-.15-.312-.1-.49.07-.239.228-.164.37-.1a6.132,6.132,0,0,0,2.1.512c.151.012.332-.029.322.223-.007.211-.042.428-.306.431-.183,0-.367,0-.623,0,.237.393.569.1.788.243a3.329,3.329,0,0,0,1.429-.429l-.645-.034-.06-.039c-.056-.429.318-.164.43-.321l.06-.053c.07-.158.3-.061.345-.283a7.419,7.419,0,0,1-5.239-1.2c-.051.393.283.488.454.711.059.077.167.176.027.275-.021.015-.1-.045-.154-.043l-.578-.294A3.488,3.488,0,0,0,141.271,512.039Z" transform="translate(-140.145 -509.91)" fill="#ebaf4f"/>
      <path id="Path_169" data-name="Path 169" d="M141.046,511.446c.091.128.211.288.341.122a.311.311,0,0,0-.071-.469c-.228-.159-.5-.271-.6-.6-.1.033-.073.141-.1.215.021.343.47.327.476.683A.384.384,0,0,0,141.046,511.446Z" transform="translate(-140.284 -509.91)" fill="#5f5548"/>
      <path id="Path_170" data-name="Path 170" d="M149.243,513.79c.2-.241.55-.023.75-.319l-.321-.093.008,0a4.536,4.536,0,0,1-.556.093.167.167,0,0,0-.11.24.149.149,0,0,0,.236.075Z" transform="translate(-144.344 -511.302)" fill="#bebbb3"/>
      <path id="Path_171" data-name="Path 171" d="M141.077,511.6c.2.047.273-.018.1-.19s-.385-.331-.579-.494C140.493,511.372,140.971,511.331,141.077,511.6Z" transform="translate(-140.269 -510.112)" fill="#c4beb9"/>
      <path id="Path_172" data-name="Path 172" d="M144.687,514.967a.492.492,0,0,0,.487-.417.4.4,0,0,0-.3-.51.434.434,0,0,0-.522.354A.489.489,0,0,0,144.687,514.967Z" transform="translate(-142.088 -511.619)" fill="#f0eeec"/>
      <path id="Path_173" data-name="Path 173" d="M144.269,513.269a.541.541,0,0,1,.608.208.6.6,0,0,0,.947.029l-2.176-.666C143.729,513.307,144.056,513.141,144.269,513.269Z" transform="translate(-141.753 -511.042)" fill="#e3e1df"/>
      <path id="Path_174" data-name="Path 174" d="M144.016,513.144c-.14-.259-.481-.1-.619-.358-.084-.048-.18-.1-.249,0a.133.133,0,0,0,.074.194C143.478,513.085,143.713,513.318,144.016,513.144Z" transform="translate(-141.501 -510.988)" fill="#ecede9"/>
      <path id="Path_175" data-name="Path 175" d="M149.181,513.746c-.111-.076-.259-.153-.019-.257.146-.063.332.017.449-.151a.934.934,0,0,0-.6.035.252.252,0,0,0-.136.348C148.944,513.9,149.07,513.871,149.181,513.746Z" transform="translate(-144.275 -511.265)" fill="#585248"/>
    </g>
  </g>
</svg>
